<svg width="600" height="500" xmlns="http://www.w3.org/2000/svg" font-family="sans-serif">
  <style>
    .node { stroke: #616161; stroke-width: 2; rx: 8; }
    .text { fill: #212121; text-anchor: middle; font-size: 16px; }
    .label { font-size: 16px; font-weight: bold; text-anchor: middle; }
    
    .start { fill: #e3f2fd; }
    .decision { fill: #fffde7; }
    .cache-hit { fill: #e8f5e9; }
    .cache-miss { fill: #fbe9e7; }
    .network-resp { fill: #fafafa; }

    .arrow { stroke: #424242; stroke-width: 2; fill: none; marker-end: url(#arrowhead); }
    .yes-label { fill: #388e3c; }
    .no-label { fill: #d32f2f; }
  </style>

  <!-- Nodes -->
  <rect x="200" y="20" width="200" height="50" class="node start" />
  <text x="300" y="50" class="text">リクエスト発生</text>

  <path d="M200,115 L300,75 L400,115 L300,155 Z" class="node decision" />
  <text x="300" y="115" class="text">キャッシュに</text>
  <text x="300" y="135" class="text">ある？</text>

  <rect x="400" y="250" width="180" height="60" class="node cache-hit" />
  <text x="490" y="285" class="text">キャッシュから応答</text>

  <rect x="50" y="250" width="200" height="60" class="node cache-miss" />
  <text x="150" y="285" class="text">ネットワークから取得</text>

  <rect x="50" y="370" width="200" height="60" class="node network-resp" />
  <text x="150" y="405" class="text">ネットワークから応答</text>

  <!-- Arrows and Labels -->
  <path d="M300 70 V 75" class="arrow" />
  
  <path d="M300 155 L150 245" class="arrow" />
  <text x="220" y="180" class="label no-label">いいえ</text>

  <path d="M300 155 L490 245" class="arrow" />
  <text x="390" y="180" class="label yes-label">はい</text>

  <path d="M150 310 V 365" class="arrow" />

  <defs>
    <marker id="arrowhead" markerWidth="10" markerHeight="7" refX="0" refY="3.5" orient="auto">
      <polygon points="0 0, 10 3.5, 0 7" fill="#424242" />
    </marker>
  </defs>
</svg>